<?xml version="1.0" encoding="utf-8"?>
<!-- Generator: Adobe Illustrator 17.0.0, SVG Export Plug-In . SVG Version: 6.00 Build 0)  -->
<!DOCTYPE svg PUBLIC "-//W3C//DTD SVG 1.1//EN" "http://www.w3.org/Graphics/SVG/1.1/DTD/svg11.dtd">
<svg version="1.1" id="Layer_1" xmlns="http://www.w3.org/2000/svg" xmlns:xlink="http://www.w3.org/1999/xlink" x="0px" y="0px"
	 width="720px" height="720px" viewBox="180 62.243 720 720" enable-background="new 180 62.243 720 720" xml:space="preserve">
<g>
	<g>
		<path fill="#FFFFFF" d="M859.528,365.782l1.124,0.246H378.861l151.458-151.791c7.417-7.411,11.485-17.45,11.485-27.986
			c0-10.537-4.068-20.505-11.485-27.934l-23.567-23.579c-7.411-7.411-17.286-11.508-27.817-11.508
			c-10.537,0-20.418,4.068-27.828,11.479L191.479,394.312c-7.44,7.44-11.508,17.35-11.479,27.893
			c-0.029,10.601,4.039,20.517,11.479,27.945l259.627,259.627c7.411,7.405,17.286,11.479,27.828,11.479
			c10.531,0,20.406-4.08,27.817-11.479l23.567-23.579c7.417-7.399,11.485-17.28,11.485-27.817c0-10.531-4.068-19.891-11.485-27.296
			l-153.167-152.64h482.915c21.7,0,39.934-18.702,39.934-40.39v-33.348C900,383.021,881.227,365.782,859.528,365.782z"/>
	</g>
</g>
</svg>
