<?xml version="1.0" encoding="utf-8"?>
<!-- Generator: Adobe Illustrator 17.0.0, SVG Export Plug-In . SVG Version: 6.00 Build 0)  -->
<!DOCTYPE svg PUBLIC "-//W3C//DTD SVG 1.1//EN" "http://www.w3.org/Graphics/SVG/1.1/DTD/svg11.dtd">
<svg version="1.1" id="Layer_1" xmlns="http://www.w3.org/2000/svg" xmlns:xlink="http://www.w3.org/1999/xlink" x="0px" y="0px"
	 width="422.317px" height="720px" viewBox="328.503 0 422.317 720" enable-background="new 328.503 0 422.317 720"
	 xml:space="preserve">
<g>
	<g>
		<path fill="#FFFFFF" d="M740.012,331.906L419.603,11.502C412.192,4.086,402.3,0,391.751,0S371.311,4.086,363.9,11.502
			l-23.596,23.59c-15.354,15.372-15.354,40.355,0,55.703l269.055,269.055L340.006,629.205c-7.411,7.417-11.502,17.303-11.502,27.846
			c0,10.554,4.092,20.441,11.502,27.863l23.596,23.584c7.417,7.417,17.303,11.502,27.851,11.502s20.441-4.086,27.851-11.502
			l320.708-320.696c7.428-7.44,11.508-17.374,11.485-27.933C751.52,349.267,747.44,339.34,740.012,331.906z"/>
	</g>
</g>
</svg>
